<?xml version="1.0" encoding="iso-8859-1"?>
<!-- Uploaded to: SVG Repo, www.svgrepo.com, Generator: SVG Repo Mixer Tools -->
<svg fill="#000000" version="1.1" id="Layer_1" xmlns="http://www.w3.org/2000/svg" xmlns:xlink="http://www.w3.org/1999/xlink" 
	 viewBox="0 0 512 512" xml:space="preserve">
<g>
	<g>
		<rect x="233.739" y="22.261" width="100.174" height="33.391"/>
	</g>
</g>
<g>
	<g>
		<polygon points="400.696,122.435 400.696,89.044 367.304,89.044 367.304,55.652 333.913,55.652 333.913,155.826 434.087,155.826 
			434.087,122.435 		"/>
	</g>
</g>
<g>
	<g>
		<rect x="400.696" y="55.652" width="33.391" height="33.391"/>
	</g>
</g>
<g>
	<g>
		<rect x="434.087" y="22.261" width="77.913" height="33.391"/>
	</g>
</g>
<g>
	<g>
		<rect x="434.087" y="155.826" width="33.391" height="100.174"/>
	</g>
</g>
<g>
	<g>
		<polygon points="300.522,389.565 300.522,289.391 200.348,289.391 200.348,189.217 100.174,189.217 100.174,89.044 66.783,89.044 
			66.783,222.609 166.957,222.609 166.957,322.783 267.13,322.783 267.13,422.957 400.696,422.957 400.696,389.565 		"/>
	</g>
</g>
<g>
	<g>
		<polygon points="333.913,256 333.913,155.826 233.739,155.826 233.739,55.652 100.174,55.652 100.174,89.044 200.348,89.044 
			200.348,189.217 300.522,189.217 300.522,289.391 400.696,289.391 400.696,389.565 434.087,389.565 434.087,256 		"/>
	</g>
</g>
<g>
	<g>
		<polygon points="166.957,422.957 166.957,322.783 66.783,322.783 66.783,222.609 33.391,222.609 33.391,356.174 133.565,356.174 
			133.565,456.348 267.13,456.348 267.13,422.957 		"/>
	</g>
</g>
<g>
	<g>
		<rect y="356.174" width="33.391" height="100.174"/>
	</g>
</g>
<g>
	<g>
		<rect x="33.391" y="456.348" width="100.174" height="33.391"/>
	</g>
</g>
</svg>